HIERARCHY
ROOT root
{
	OFFSET	0	13.1	24.9
	CHANNELS 6  Xposition Yposition Zposition Xrotation Yrotation Zrotation
	JOINT spine_1
	{
		OFFSET	0	9.99999	0
		CHANNELS 3  Xrotation Yrotation Zrotation
		JOINT spine_2
		{
			OFFSET	0	112	-10
			CHANNELS 3  Xrotation Yrotation Zrotation
			JOINT spine_3
			{
				OFFSET	0	206.5	19.3
				CHANNELS 3  Xrotation Yrotation Zrotation
				JOINT spine_4
				{
					OFFSET	0	110.4	14.6
					CHANNELS 3  Xrotation Yrotation Zrotation
					JOINT neck_1
					{
						OFFSET	0	71.8	-50.3
						CHANNELS 3  Xrotation Yrotation Zrotation
						JOINT neck_2
						{
							OFFSET	0	86.2	-25.8
							CHANNELS 3  Xrotation Yrotation Zrotation
							JOINT head_ee
							{
								OFFSET	0	179.8	-8.7
								CHANNELS 3  Xrotation Yrotation Zrotation
								End Site
								{
									OFFSET	1	0	0
								}
							}
						}
					}
					JOINT left_clavicle
					{
						OFFSET	-43.2	22.4	-70.8
						CHANNELS 3  Xrotation Yrotation Zrotation
						JOINT left_shoulder
						{
							OFFSET	-93.9	-5.79999	48.7
							CHANNELS 3  Xrotation Yrotation Zrotation
							JOINT left_elbow
							{
								OFFSET	-291.4	-30.8	15.2
								CHANNELS 3  Xrotation Yrotation Zrotation
								JOINT left_lowarm_twist
								{
									OFFSET	-110.7	-3.89999	13.6
									CHANNELS 3  Xrotation Yrotation Zrotation
									JOINT left_hand
									{
										OFFSET	-110.7	-3.89999	13.6
										CHANNELS 3  Xrotation Yrotation Zrotation
										JOINT left_ee
										{
											OFFSET	-80.8	-5.10001	12.1
											CHANNELS 3  Xrotation Yrotation Zrotation
											End Site
											{
												OFFSET	1	0	0
											}
										}
									}
								}
							}
						}
					}
					JOINT right_clavicle
					{
						OFFSET	43.2	22.4	-70.8
						CHANNELS 3  Xrotation Yrotation Zrotation
						JOINT right_shoulder
						{
							OFFSET	93.9	-5.79999	48.7
							CHANNELS 3  Xrotation Yrotation Zrotation
							JOINT right_elbow
							{
								OFFSET	291.4	-30.8	15.2
								CHANNELS 3  Xrotation Yrotation Zrotation
								JOINT right_lowarm_twist
								{
									OFFSET	110.7	-3.89999	13.6
									CHANNELS 3  Xrotation Yrotation Zrotation
									JOINT right_hand
									{
										OFFSET	110.7	-3.89999	13.6
										CHANNELS 3  Xrotation Yrotation Zrotation
										JOINT right_ee
										{
											OFFSET	80.8	-5.10001	12.1
											CHANNELS 3  Xrotation Yrotation Zrotation
											End Site
											{
												OFFSET	1	0	0
											}
										}
									}
								}
							}
						}
					}
				}
			}
		}
	}
	JOINT left_hip
	{
		OFFSET	-82.8	-127.5	0.300001
		CHANNELS 3  Xrotation Yrotation Zrotation
		JOINT left_knee
		{
			OFFSET	-28.2	-396.7	2.2
			CHANNELS 3  Xrotation Yrotation Zrotation
			JOINT left_ankle
			{
				OFFSET	-11.7	-411.3	35.4
				CHANNELS 3  Xrotation Yrotation Zrotation
				JOINT left_toes
				{
					OFFSET	0	-60	-88.6
					CHANNELS 3  Xrotation Yrotation Zrotation
					JOINT left_foot_ee
					{
						OFFSET	-22.5	-16.5	-42.2
						CHANNELS 3  Xrotation Yrotation Zrotation
						End Site
						{
							OFFSET	1	0	0
						}
					}
				}
			}
		}
	}
	JOINT right_hip
	{
		OFFSET	82.8	-127.5	0.300001
		CHANNELS 3  Xrotation Yrotation Zrotation
		JOINT right_knee
		{
			OFFSET	28.2	-396.7	2.2
			CHANNELS 3  Xrotation Yrotation Zrotation
			JOINT right_ankle
			{
				OFFSET	11.7	-411.3	35.4
				CHANNELS 3  Xrotation Yrotation Zrotation
				JOINT right_toes
				{
					OFFSET	0	-60	-88.6
					CHANNELS 3  Xrotation Yrotation Zrotation
					JOINT right_foot_ee
					{
						OFFSET	22.5	-16.5	-42.2
						CHANNELS 3  Xrotation Yrotation Zrotation
						End Site
						{
							OFFSET	1	0	0
						}
					}
				}
			}
		}
	}
}
MOTION
Frames: 5
Frame Time: 0.02
2800.94 716.97 -1473.77 -14.4403093864 72.8718416536 12.3867688418 1.10035 0.23308 1.87949 1.10231 0.113033 1.89051 1.10644 -0.250699 1.87722 1.10153 0.0488647 1.89325 -8.11994 -12.1538 2.18089 -8.16841 -24.2383 -0.554198 -0.0 0.0 -0.0 -1.63012 13.0171 -1.15889 9.51799 -27.7489 66.4282 5.14941 -68.5679 3.51184 -37.9381 -2.7346 3.90868 -0.307042 3.65576 -0.494194 -0.0 0.0 -0.0 11.0776 2.06006 -22.0215 -29.8321 5.6863 -64.5938 0.679854 18.6125 -0.111408 85.1932 4.44967 8.875 -7.17526 -29.4731 28.2746 0.0 0.0 0.0 -10.6075 15.2208 0.674417 -21.1854 0.279667 3.22054 39.429 -7.16915 -4.91829 -11.5412 0.0 0.0 -0.0 0.0 -0.0 30.556 14.9322 -2.63879 3.76399 0.173201 0.551452 -10.4756 9.93303 -1.64919 -12.2547 0.0 0.0 0.0 0.0 0.0 
2785.58178288 716.76 -1482.94241337 -22.4381385943 75.0812202873 20.3061257663 1.43724 0.090558 1.75563 1.43896 -0.0213229 1.75783 1.43843 -0.347258 1.72333 1.43429 -0.0707756 1.75653 -6.33403 -13.6815 2.19659 -6.24742 -26.9522 -0.447121 -0.0 0.0 -0.0 -1.66192 12.7004 -1.26137 8.15153 -28.2983 66.5896 4.64722 -66.4981 3.04769 -39.9311 -2.94384 4.05571 -0.28942 3.00903 -0.652162 -0.0 0.0 -0.0 10.9767 1.06835 -21.7534 -29.272 7.48958 -64.5487 0.627913 17.2784 -0.0954033 85.286 4.46081 8.87924 -6.93441 -29.5543 26.6894 0.0 0.0 0.0 -10.6214 16.2884 -0.332825 -15.3179 0.322013 2.32167 35.4115 -6.80167 -4.54214 -9.97027 0.0 0.0 -0.0 0.0 -0.0 30.1591 14.9515 -1.47467 3.81676 0.175886 0.559102 -3.49094 9.7443 -0.542182 -11.3339 0.0 0.0 0.0 0.0 0.0 
2758.88241972 724.468 -1491.51661773 -29.0055855666 76.4604148462 26.698617048 1.74572 0.113281 1.78224 1.74749 -0.000338401 1.78583 1.74748 -0.322357 1.75651 1.74318 -0.0409504 1.78536 -4.28515 -14.7375 0.641829 -4.04447 -27.517 -1.7222 -0.0 0.0 -0.0 -1.47556 13.2895 -0.861299 3.50373 -30.082 65.594 4.46051 -65.6288 2.87704 -42.6339 -3.23553 4.24335 -0.605914 2.51337 -2.96139 -0.0 0.0 -0.0 10.5667 -0.921098 -20.7746 -28.7637 8.7737 -65.1268 0.672833 18.4334 -0.109178 85.4112 4.47583 8.88492 -6.53864 -29.6837 24.1562 0.0 0.0 0.0 -10.79 17.1708 -1.17943 -12.399 0.30876 1.87405 33.5197 -5.88175 -4.34092 -10.4909 0.0 0.0 -0.0 0.0 -0.0 29.8726 14.7569 -0.908712 1.43387 0.0616954 0.211374 -0.497613 9.45661 -0.076612 -11.17 0.0 0.0 0.0 0.0 0.0 
2759.16017862 724.468 -1492.16100393 -27.3289967705 75.6838831169 24.9712899811 1.74572 0.113281 1.78224 1.74749 -0.000338401 1.78583 1.74748 -0.322357 1.75651 1.74318 -0.0409504 1.78536 -4.28515 -14.7375 0.641829 -4.04447 -27.517 -1.7222 -0.0 0.0 -0.0 -1.47556 13.2895 -0.861299 3.50373 -30.082 65.594 4.46051 -65.6288 2.87704 -42.6339 -3.23553 4.24335 -0.605914 2.51337 -2.96139 -0.0 0.0 -0.0 10.5667 -0.921098 -20.7746 -28.7637 8.7737 -65.1268 0.672833 18.4334 -0.109178 85.4112 4.47583 8.88492 -6.53864 -29.6837 24.1562 0.0 0.0 0.0 -10.79 17.1708 -1.17943 -12.399 0.30876 1.87405 33.5197 -5.88175 -4.34092 -10.4909 0.0 0.0 -0.0 0.0 -0.0 29.8726 14.7569 -0.908712 1.43387 0.0616954 0.211374 -0.497613 9.45661 -0.076612 -11.17 0.0 0.0 0.0 0.0 0.0 
2735.88423753 724.611 -1498.45184696 -32.2292991719 76.9592288131 29.9990647257 1.95336 0.207721 1.71565 1.955 0.0981456 1.72538 1.95791 -0.208237 1.71559 1.95381 0.0652795 1.72694 -4.61426 -16.1899 0.302682 -4.36484 -29.99 -2.38911 -0.0 0.0 -0.0 -1.67938 13.2198 -1.20854 0.441543 -31.2698 65.2531 4.06738 -63.5857 2.52183 -44.865 -3.48278 4.38777 -0.754485 2.36137 -4.01417 -0.0 0.0 -0.0 10.6391 -3.87221 -20.7035 -31.1215 12.0857 -63.387 0.74429 20.2389 -0.132841 85.3115 4.46386 8.88039 -6.27607 -29.4388 22.8051 0.0 0.0 0.0 -10.6261 17.7968 -1.66415 -12.4626 0.309292 1.8838 32.065 -3.4413 -4.15969 -10.4611 0.0 0.0 -0.0 0.0 -0.0 27.5333 14.5893 -0.61043 3.56979 0.163379 0.523282 3.60401 6.89866 0.541371 -11.1538 0.0 0.0 0.0 0.0 0.0 
